<?xml version="1.0" standalone="no"?>
<!DOCTYPE svg PUBLIC "-//W3C//DTD SVG 20010904//EN"
 "http://www.w3.org/TR/2001/REC-SVG-20010904/DTD/svg10.dtd">
<svg version="1.0" xmlns="http://www.w3.org/2000/svg"
 width="900.000000pt" height="900.000000pt" viewBox="0 0 900.000000 900.000000"
 preserveAspectRatio="xMidYMid meet">
<metadata>
Created by potrace 1.16, written by Peter Selinger 2001-2019
</metadata>
<g transform="translate(0.000000,900.000000) scale(0.100000,-0.100000)"
fill="#000000" stroke="none">
<path d="M5750 8923 c-50 -228 -174 -455 -459 -846 -433 -594 -574 -908 -662
-1467 -26 -170 -37 -519 -20 -641 53 -378 205 -612 486 -751 160 -80 350 -120
620 -133 422 -19 432 -22 420 -119 -32 -252 -119 -510 -228 -677 -28 -44 -32
-46 -101 -58 -179 -30 -373 -157 -463 -302 l-36 -60 -41 39 c-56 52 -82 68
-171 97 -271 91 -574 -11 -676 -228 -30 -65 -30 -65 -62 -56 -49 14 -196 11
-260 -6 -161 -42 -301 -163 -332 -287 -6 -24 0 -35 56 -88 293 -279 670 -445
1180 -519 204 -30 343 -41 584 -47 121 -2 262 -9 314 -15 137 -16 277 -65 357
-125 l30 -24 495 286 c272 157 589 340 704 406 116 66 216 126 223 133 32 30
-75 215 -182 312 -220 201 -509 233 -798 87 -39 -20 -71 -34 -72 -32 -1 2 -13
28 -27 58 -60 125 -173 237 -293 291 -25 11 -46 22 -46 23 0 2 27 84 59 183
135 407 188 760 218 1443 12 271 9 771 -5 890 -46 382 -153 760 -355 1263 -20
48 -31 85 -26 82 5 -4 68 -95 140 -203 381 -573 502 -1020 500 -1849 0 -283
-9 -502 -32 -787 -9 -115 -9 -140 2 -148 8 -5 64 -7 124 -5 92 3 122 9 185 33
377 149 668 667 721 1284 56 660 -227 1231 -881 1776 -157 131 -332 259 -670
490 -168 114 -349 241 -403 281 -54 40 -99 73 -101 73 -1 0 -9 -26 -16 -57z"/>
<path d="M1960 3765 c-101 -17 -221 -49 -324 -85 -173 -61 -913 -386 -1431
-627 -139 -65 -170 -83 -168 -99 1 -10 60 -147 131 -304 71 -157 281 -620 467
-1030 185 -410 342 -754 349 -766 10 -20 24 -13 291 158 154 99 310 194 346
213 175 89 325 90 531 1 42 -18 420 -211 840 -428 1072 -556 1082 -561 1284
-612 273 -69 494 -53 732 52 92 40 367 203 697 412 698 443 2591 1695 2777
1837 128 98 234 212 284 304 37 70 39 78 39 164 0 78 -4 97 -28 147 -58 119
-184 211 -325 239 -114 22 -299 -3 -448 -60 -130 -50 -255 -119 -739 -408
-541 -323 -790 -470 -806 -475 -6 -2 -4 -28 6 -63 19 -74 19 -189 0 -278 -36
-172 -159 -321 -341 -414 -126 -65 -227 -99 -372 -124 -107 -18 -166 -19 -927
-19 -880 0 -899 1 -1064 56 -177 58 -423 199 -608 348 -97 79 -245 217 -239
223 2 2 17 -2 33 -10 57 -30 412 -145 568 -185 342 -88 309 -85 1205 -90 551
-2 825 0 893 8 259 30 447 120 500 240 38 85 21 222 -35 286 -86 97 -251 130
-698 139 -559 11 -650 23 -955 121 -311 101 -482 189 -769 399 -714 519 -985
674 -1277 730 -98 18 -312 18 -419 0z"/>
</g>
</svg>
